<?xml version="1.0" encoding="utf-8"?>
<!-- Generator: Adobe Illustrator 22.1.0, SVG Export Plug-In . SVG Version: 6.00 Build 0)  -->
<svg version="1.1" id="Capa_1" xmlns="http://www.w3.org/2000/svg" xmlns:xlink="http://www.w3.org/1999/xlink" x="0px" y="0px"
	 viewBox="0 0 491 591" style="enable-background:new 0 0 491 591;" xml:space="preserve">
<style type="text/css">
	.st0{fill:#498CBA;}
	.st1{fill:#EFEFEF;}
</style>
<path id="XMLID_448_" class="st0" d="M445.8,308.4l-51.5-73.8c-1.2-1.7-1.9-3.8-1.9-5.9v-17.4v-11.4V97.2c0-6.7-2.6-12.9-7.3-17.6
	L312.8,7.3c-4.7-4.7-11-7.3-17.6-7.3H87.9C58.7,0,35.1,23.6,35.1,52.8v362.6c0,29.2,23.6,52.8,52.8,52.8h149h34.7
	c3.1,0,5.9,1.4,7.9,3.7c1,1.2,2.1,2.4,3.3,3.5c10,9.6,23.5,15.6,38.5,15.6c26.9,0-1.2,0,34.4,0c14.9,0,28.5-6,38.5-15.6
	c11.7-11.2,17.3-25.8,17.3-40.3v-32.2c0-4.3,2.7-8.3,6.8-9.7c13.3-4.6,24.4-14.1,31.1-26.9C459.2,347.7,457.7,325.6,445.8,308.4z
	 M170.1,414.9H97.7c-5.7,0-10.3-4.6-10.3-10.3v-341c0-5.7,4.6-10.3,10.3-10.3h155.1c5.7,0,10.3,4.6,10.3,10.3v26.2
	c0,22.4,18.1,40.5,40.5,40.5h26.2c5.7,0,10.3,4.6,10.3,10.3v56.1h-0.3l0,0c-17.7-0.4-35.5,7.3-46.9,23.5l-61.6,88.3
	c-12,17.1-13.4,39.3-3.7,57.8c6.7,12.8,17.8,22.3,31.1,26.9c4.1,1.4,6.8,5.4,6.8,9.7v1.7c0,5.7-4.6,10.3-10.3,10.3l0,0H170.1
	L170.1,414.9z M410.3,345.8c-2,3.9-6,6.3-10.3,6.3l0,0h-22.3c-5.7,0-10.3,4.6-10.3,10.3v72.8c0,6.4-5.2,11.7-11.7,11.7l0,0h-34.4
	l0,0c-6.4,0-11.7-5.2-11.7-11.7v-72.8c0-5.7-4.6-10.3-10.3-10.3H277l0,0c-4.3,0-8.3-2.4-10.3-6.3s-1.7-8.5,0.8-12.1l61.4-88.1
	c2.2-3.1,5.8-5,9.6-5l0,0c3.8,0,7.4,1.9,9.6,5l61.4,88.1C412,337.3,412.3,341.9,410.3,345.8z"/>
<g>
	<path class="st1" d="M109.4,540.3v14.4H40.2v-92.2h67.3v14.4H57.4v24h44.5V515H57.4v25.4h52V540.3z"/>
	<path class="st1" d="M120.7,511.1H157v13.7h-36.2v-13.7H120.7z"/>
	<path class="st1" d="M193.8,476.7v28.1h44.5v14.5h-44.5v35.3h-17.1v-92.2H244v14.4h-50.2V476.7z"/>
	<path class="st1" d="M260.6,462.4h17.1v92.2h-17.1V462.4z"/>
	<path class="st1" d="M302.6,462.4h17.1v77.8H368v14.5h-65.4V462.4z"/>
	<path class="st1" d="M381.5,540.3v14.4h69.2v-92.2h-67.3v14.4h50.2v24h-44.5V515h44.5v25.4h-52.1V540.3z"/>
</g>
</svg>
